<svg width="31" height="30" viewBox="0 0 31 30" fill="none" xmlns="http://www.w3.org/2000/svg">
<path d="M25.6183 19.8804L25.3329 19.4142C24.7751 18.5031 24.1 17.6677 23.3264 16.931L22.3722 16.0224C22.2815 15.936 22.2679 15.7988 22.3398 15.6963L23.6428 13.8396C23.8307 13.5718 24.0041 13.2899 24.1582 13.0015L25.2716 10.9182C25.4657 10.5552 25.4553 10.1275 25.2438 9.77424C25.0324 9.42104 24.6604 9.20982 24.2487 9.20937L21.8387 9.20662H21.8372C21.3323 9.20662 20.8751 9.50525 20.6722 9.96762L20.4169 10.5492C19.7656 12.0332 18.8767 13.3862 17.7738 14.5725V10.3264C17.7738 9.70865 17.2712 9.20605 16.6536 9.20605H13.2403C12.6798 9.20605 12.2239 9.66202 12.2239 10.2225C12.2239 10.4365 12.2899 10.6416 12.4146 10.8153L12.6535 11.148C12.8876 11.4741 13.0114 11.8586 13.0114 12.2601V15.3628C12.5905 14.874 12.078 14.2101 11.6441 13.4469C10.9797 12.278 10.5035 10.915 10.2788 10.2065C10.089 9.60813 9.53974 9.20605 8.91204 9.20605H6.47113C6.12666 9.20605 5.80986 9.36356 5.60173 9.63817C5.39378 9.91284 5.32802 10.2606 5.42145 10.5923L5.87679 12.2083C6.15585 13.199 6.53948 14.1633 7.01698 15.0747C7.02578 15.0898 7.03481 15.1052 7.04406 15.1209C7.20041 15.3613 7.51697 15.4477 7.77624 15.3119C8.05148 15.1677 8.15762 14.8277 8.01345 14.5526C7.57217 13.7102 7.21763 12.8189 6.95966 11.9033L6.51669 10.3311H8.9121C9.04727 10.3311 9.16556 10.4177 9.20646 10.5467C9.44456 11.2972 9.95081 12.7443 10.6661 14.0027C11.2531 15.0352 11.9651 15.8954 12.4592 16.4352C12.7299 16.7309 13.1464 16.8283 13.5202 16.6829C13.8945 16.5375 14.1364 16.1841 14.1364 15.7826V12.2601C14.1364 11.6218 13.9396 11.0103 13.5674 10.4918L13.4519 10.3311H16.6488V14.842C16.6488 15.172 16.8145 15.4755 17.0921 15.6539C17.3697 15.8324 17.7146 15.8571 18.0148 15.72L18.2467 15.6142C18.3536 15.5655 18.4485 15.4974 18.529 15.412C19.7497 14.1157 20.7315 12.6317 21.4471 11.0013L21.7024 10.4196C21.7258 10.3661 21.7788 10.3316 21.8372 10.3316L24.2474 10.3343C24.2556 10.3343 24.2681 10.3344 24.2786 10.352C24.2893 10.3698 24.2834 10.3807 24.2795 10.3879L23.1661 12.4712C23.0333 12.7197 22.8839 12.9626 22.722 13.1933L21.419 15.05C21.0246 15.6121 21.0992 16.3636 21.5964 16.8371L22.5506 17.7458C23.2534 18.415 23.8667 19.174 24.3735 20.0016L24.6589 20.4679C24.6658 20.4791 24.6866 20.5132 24.6606 20.5596C24.6346 20.606 24.5946 20.606 24.5815 20.606H22.5009C22.2335 20.606 21.9733 20.4961 21.7869 20.3045L19.7065 18.1653C19.2162 17.6612 18.594 17.3149 17.9071 17.1642C17.5993 17.0965 17.2815 17.1711 17.0357 17.3688C16.7899 17.5665 16.6489 17.8607 16.6489 18.1761V20.278C16.6489 20.4589 16.5017 20.6061 16.3208 20.6061C14.7086 20.6061 13.1154 20.0666 11.8347 19.0872C11.3188 18.6926 10.8267 18.2574 10.3722 17.7937C10.3572 17.7802 10.3421 17.7664 10.3271 17.7524C10.108 17.5725 9.78386 17.5828 9.57669 17.7859C9.35484 18.0034 9.35136 18.3596 9.56882 18.5814C10.0606 19.083 10.593 19.5538 11.1512 19.9807C12.627 21.1095 14.4629 21.7311 16.3207 21.7311C17.122 21.7311 17.7738 21.0792 17.7738 20.278V18.2893C18.2022 18.4037 18.5896 18.6305 18.9 18.9497L20.9804 21.0889C21.3773 21.497 21.9315 21.7311 22.5009 21.7311H24.5815C25.021 21.7311 25.4274 21.4929 25.6421 21.1095C25.8568 20.7262 25.8477 20.2552 25.6183 19.8804Z" fill="#63BFBE"/>
<path d="M7.77624 15.3119C7.51697 15.4477 7.20041 15.3613 7.04406 15.1209C7.54487 15.9736 8.70689 17.7865 9.56882 18.5814C9.35136 18.3596 9.35484 18.0034 9.57669 17.7859C9.78386 17.5828 10.108 17.5725 10.3271 17.7524C9.36434 16.8596 8.38672 15.2538 8.01345 14.5526C8.15762 14.8277 8.05148 15.1677 7.77624 15.3119Z" fill="#63BFBE"/>
<path d="M8.01345 14.5526C8.15762 14.8277 8.05148 15.1677 7.77624 15.3119C7.51697 15.4477 7.20041 15.3613 7.04406 15.1209M8.01345 14.5526C7.57217 13.7102 7.21763 12.8189 6.95966 11.9033L6.51669 10.3311H8.9121C9.04727 10.3311 9.16556 10.4177 9.20646 10.5467C9.44456 11.2972 9.95081 12.7443 10.6661 14.0027C11.2531 15.0352 11.9651 15.8954 12.4592 16.4352C12.7299 16.7309 13.1464 16.8283 13.5202 16.6829C13.8945 16.5375 14.1364 16.1841 14.1364 15.7826V12.2601C14.1364 11.6218 13.9396 11.0103 13.5674 10.4918L13.4519 10.3311H16.6488V14.842C16.6488 15.172 16.8145 15.4755 17.0921 15.6539C17.3697 15.8324 17.7146 15.8571 18.0148 15.72L18.2467 15.6142C18.3536 15.5655 18.4485 15.4974 18.529 15.412C19.7497 14.1157 20.7315 12.6317 21.4471 11.0013L21.7024 10.4196C21.7258 10.3661 21.7788 10.3316 21.8372 10.3316L24.2474 10.3343C24.2556 10.3343 24.2681 10.3344 24.2786 10.352C24.2893 10.3698 24.2834 10.3807 24.2795 10.3879L23.1661 12.4712C23.0333 12.7197 22.8839 12.9626 22.722 13.1933L21.419 15.05C21.0246 15.6121 21.0992 16.3636 21.5964 16.8371L22.5506 17.7458C23.2534 18.415 23.8667 19.174 24.3735 20.0016L24.6589 20.4679C24.6658 20.4791 24.6866 20.5132 24.6606 20.5596C24.6346 20.606 24.5946 20.606 24.5815 20.606H22.5009C22.2335 20.606 21.9733 20.4961 21.7869 20.3045L19.7065 18.1653C19.2162 17.6612 18.594 17.3149 17.9071 17.1642C17.5993 17.0965 17.2815 17.1711 17.0357 17.3688C16.7899 17.5665 16.6489 17.8607 16.6489 18.1761V20.278C16.6489 20.4589 16.5017 20.6061 16.3208 20.6061C14.7086 20.6061 13.1154 20.0666 11.8347 19.0872C11.3188 18.6926 10.8267 18.2574 10.3722 17.7937C10.3572 17.7802 10.3421 17.7664 10.3271 17.7524M8.01345 14.5526C8.38672 15.2538 9.36434 16.8596 10.3271 17.7524M9.56882 18.5814C9.35136 18.3596 9.35484 18.0034 9.57669 17.7859C9.78386 17.5828 10.108 17.5725 10.3271 17.7524M9.56882 18.5814C10.0606 19.083 10.593 19.5538 11.1512 19.9807C12.627 21.1095 14.4629 21.7311 16.3207 21.7311C17.122 21.7311 17.7738 21.0792 17.7738 20.278V18.2893C18.2022 18.4037 18.5896 18.6305 18.9 18.9497L20.9804 21.0889C21.3773 21.497 21.9315 21.7311 22.5009 21.7311H24.5815C25.021 21.7311 25.4274 21.4929 25.6421 21.1095C25.8568 20.7262 25.8477 20.2552 25.6183 19.8804L25.3329 19.4142C24.7751 18.5031 24.1 17.6677 23.3264 16.931L22.3722 16.0224C22.2815 15.936 22.2679 15.7988 22.3398 15.6963L23.6428 13.8396C23.8307 13.5718 24.0041 13.2899 24.1582 13.0015L25.2716 10.9182C25.4657 10.5552 25.4553 10.1275 25.2438 9.77424C25.0324 9.42104 24.6604 9.20982 24.2487 9.20937L21.8387 9.20662H21.8372C21.3323 9.20662 20.8751 9.50525 20.6722 9.96762L20.4169 10.5492C19.7656 12.0332 18.8767 13.3862 17.7738 14.5725V10.3264C17.7738 9.70865 17.2712 9.20605 16.6536 9.20605H13.2403C12.6798 9.20605 12.2239 9.66202 12.2239 10.2225C12.2239 10.4365 12.2899 10.6416 12.4146 10.8153L12.6535 11.148C12.8876 11.4741 13.0114 11.8586 13.0114 12.2601V15.3628C12.5905 14.874 12.078 14.2101 11.6441 13.4469C10.9797 12.278 10.5035 10.915 10.2788 10.2065C10.089 9.60813 9.53974 9.20605 8.91204 9.20605H6.47113C6.12666 9.20605 5.80986 9.36356 5.60173 9.63817C5.39378 9.91284 5.32802 10.2606 5.42145 10.5923L5.87679 12.2083C6.15585 13.199 6.53948 14.1633 7.01698 15.0747C7.02578 15.0898 7.03481 15.1052 7.04406 15.1209M9.56882 18.5814C8.70689 17.7865 7.54487 15.9736 7.04406 15.1209" stroke="#63BFBE" stroke-width="0.4"/>
<path d="M26.2486 0.599609H4.87363C2.82653 0.599609 1.16113 2.265 1.16113 4.31211V25.6871C1.16113 27.7342 2.82653 29.3996 4.87363 29.3996H26.2486C28.2957 29.3996 29.9611 27.7342 29.9611 25.6871V4.31211C29.9611 2.265 28.2957 0.599609 26.2486 0.599609ZM28.8361 25.6871C28.8361 27.1138 27.6754 28.2746 26.2486 28.2746H4.87363C3.44691 28.2746 2.28613 27.1138 2.28613 25.6871V4.31211C2.28613 2.88538 3.44691 1.72461 4.87363 1.72461H26.2486C27.6754 1.72461 28.8361 2.88538 28.8361 4.31211V25.6871Z" fill="#63BFBE" stroke="#63BFBE" stroke-width="0.4"/>
</svg>
